<?xml version="1.0" encoding="UTF-8" standalone="no"?>
<!-- Created with Inkscape (http://www.inkscape.org/) -->

<svg
   width="117.5"
   height="47"
   viewBox="0 0 31.088563 12.435417"
   version="1.1"
   id="svg5"
   inkscape:version="1.1 (c68e22c387, 2021-05-23)"
   sodipodi:docname="logo.svg"
   xmlns:inkscape="http://www.inkscape.org/namespaces/inkscape"
   xmlns:sodipodi="http://sodipodi.sourceforge.net/DTD/sodipodi-0.dtd"
   xmlns:xlink="http://www.w3.org/1999/xlink"
   xmlns="http://www.w3.org/2000/svg"
   xmlns:svg="http://www.w3.org/2000/svg">
  <sodipodi:namedview
     id="namedview7"
     pagecolor="#ffffff"
     bordercolor="#999999"
     borderopacity="1"
     inkscape:pageshadow="0"
     inkscape:pageopacity="0"
     inkscape:pagecheckerboard="0"
     inkscape:document-units="mm"
     showgrid="false"
     units="px"
     inkscape:zoom="1.3077722"
     inkscape:cx="55.437792"
     inkscape:cy="17.204832"
     inkscape:window-width="1280"
     inkscape:window-height="961"
     inkscape:window-x="-8"
     inkscape:window-y="-8"
     inkscape:window-maximized="1"
     inkscape:current-layer="text5202"
     inkscape:snap-to-guides="false"
     inkscape:snap-grids="false"
     inkscape:snap-others="false"
     inkscape:object-nodes="false"
     inkscape:snap-nodes="false"
     inkscape:snap-global="false"
     width="229px" />
  <defs
     id="defs2">
    <rect
       x="143.3736"
       y="0.76465923"
       width="43.585575"
       height="46.644211"
       id="rect24740" />
    <rect
       x="46.499828"
       y="9.732523"
       width="57.313744"
       height="35.956264"
       id="rect16764" />
    <linearGradient
       inkscape:collect="always"
       id="linearGradient13746">
      <stop
         style="stop-color:#71c837;stop-opacity:1"
         offset="0"
         id="stop13742" />
      <stop
         style="stop-color:#e5ffd5;stop-opacity:1"
         offset="1"
         id="stop13744" />
    </linearGradient>
    <rect
       x="4.587955"
       y="2.6763072"
       width="220.60419"
       height="41.673927"
       id="rect5204" />
    <linearGradient
       inkscape:collect="always"
       xlink:href="#linearGradient13746"
       id="linearGradient13908"
       gradientUnits="userSpaceOnUse"
       x1="4.5478449"
       y1="37.5042"
       x2="119.03978"
       y2="-4.8714232" />
  </defs>
  <g
     inkscape:label="Layer 1"
     inkscape:groupmode="layer"
     id="layer1">
    <g
       aria-label="شا"
       transform="matrix(0.52040419,0,0,0.52040419,23.339757,-0.21238768)"
       id="text5202"
       style="font-size:28px;line-height:1.25;font-family:'Diwani Letter';-inkscape-font-specification:'Diwani Letter';letter-spacing:2.03368px;white-space:pre;shape-inside:url(#rect5204);fill:#dee3db">
      <g
         id="g26844"
         transform="translate(-31.72891,0.26498265)">
        <path
           d="m 23.97221,4.0436552 c 0.247114,-0.020542 -0.144694,0.6539865 -0.495704,1.220619 -0.341127,0.5658107 -0.620419,0.8577545 -0.837879,0.8758315 L 22.459509,5.9609149 22.380479,5.7286162 C 22.211645,5.613264 22.033324,5.5633938 21.845518,5.5790057 c -1.037876,0.086277 -2.170747,1.4842721 -3.39861,4.1939867 -0.04428,-1.0115094 0.458864,-2.3223218 1.509406,-3.9324364 1.094214,-1.6834148 2.105894,-2.5637413 3.035042,-2.6409792 0.602956,-0.050123 0.36801,0.8950227 0.980852,0.8440785 z m 0.51041,5.4216833 c 0.09778,1.1762605 -0.01654,2.3751285 -0.34298,3.5966065 -0.382478,1.38538 -0.953102,2.423124 -1.711869,3.113228 -0.39792,0.361521 -0.741438,0.539371 -1.030554,0.533545 -0.903895,1.458584 -1.850068,2.228961 -2.838523,2.311129 -0.146746,0.629275 -0.860646,1.44006 -2.141699,2.432355 l 0.504367,-1.9548 c 1.187212,-1.283078 1.88497,-3.065975 2.075364,-3.649115 0.06842,-0.254508 0.181342,-0.632151 0.338771,-1.132927 l 0.207539,0.1619 0.05558,0.129743 -0.09038,0.88834 c 0.0074,0.08895 0.05228,0.149923 0.134637,0.182888 0.355844,-0.02958 0.738512,-0.335093 1.14801,-0.916541 0.355118,-0.51721 0.570199,-0.982968 0.645241,-1.397272 0.04207,-0.331941 0.110541,-0.825322 0.205402,-1.480143 l 0.19525,-0.165524 0.06793,0.09886 c 0.07738,0.212529 0.151403,0.74383 0.222068,1.593899 l 0.09143,0.02226 c 0.617022,-0.359829 1.072642,-0.925205 1.366861,-1.696128 0.180484,-0.46288 0.321056,-1.106571 0.421715,-1.931072 0.08415,-0.6638835 0.173186,-1.0295874 0.267102,-1.0971106 0.122722,0.039557 0.192301,0.1581904 0.208735,0.3558801 z"
           id="path6406"
           sodipodi:nodetypes="sccccsccssssccccccccccccccccccccccss"
           style="stroke-width:1.08821" />
        <path
           d="m 21.788119,1.3768523 c 0.06971,-0.0058 -0.04082,0.1844888 -0.139839,0.3443368 -0.09622,0.1596152 -0.175022,0.2419721 -0.236365,0.2470715 l -0.05053,-0.050546 -0.0223,-0.065535 c -0.04763,-0.032543 -0.234124,0.2300415 -0.28711,0.234446 -0.292785,0.024338 -0.471853,0.5131616 -0.82255,0.9064745 -0.01251,-0.2853447 0.129446,-0.6551263 0.425803,-1.1093405 0.308679,-0.4748906 0.594075,-0.7232309 0.856186,-0.7450197 0.170094,-0.014139 0.103824,0.2524853 0.276698,0.2381147 z"
           id="path6406-0"
           sodipodi:nodetypes="sccccsccsss"
           style="font-size:28px;line-height:1.25;font-family:'Diwani Letter';-inkscape-font-specification:'Diwani Letter';letter-spacing:2.03368px;white-space:pre;shape-inside:url(#rect5204);fill:#dee3db;stroke-width:0.306986" />
        <path
           style="fill:#dee3db;fill-opacity:1;stroke:#000000;stroke-width:0;stroke-linecap:butt;stroke-linejoin:miter;stroke-miterlimit:4;stroke-dasharray:none;stroke-opacity:1"
           d="m 8.6926556,5.6331031 c 0.370884,-0.128991 0.843598,-0.07329 1.168853,0.1467149 0.3334914,0.2255757 0.4564764,0.6750333 0.5856684,1.0563598 0.205323,0.6060386 0.239926,1.2603643 0.281331,1.8988986 0.06208,0.957345 0.03742,1.9223116 -0.05059,2.8776236 -0.06395,0.694243 -0.241102,1.373485 -0.345893,2.062746 -0.115737,0.761254 -0.239405,1.522252 -0.312318,2.288793 -0.07263,0.763491 -0.2455984,1.540166 -0.1243044,2.29745 0.1147794,0.716605 0.4055094,1.413493 0.7907514,2.028542 0.329408,0.525908 0.705323,1.098418 1.265521,1.365379 0.551988,0.263049 1.234577,0.25863 1.830379,0.121139 0.741415,-0.171094 1.509935,-0.629736 1.981337,-1.133588 0.414467,-0.401279 1.023643,-0.603531 1.167393,-1.192269 0.06305,-0.06256 0.102275,0.850085 0.0083,1.11604 -0.15278,0.513537 -0.255237,1.138928 -0.782409,1.435684 -0.202967,0.05457 -0.48298,0.305026 -0.746534,0.411008 -0.699544,0.281304 -1.434564,0.512673 -2.185113,0.584577 -0.593766,0.05689 -1.233054,0.100268 -1.785022,-0.125843 -0.507439,-0.207866 -0.902127,-0.645398 -1.250582,-1.068815 -0.3168154,-0.384969 -0.5532284,-0.83844 -0.7348234,-1.302763 -0.235183,-0.601337 -0.348983,-1.246714 -0.445478,-1.885154 -0.08133,-0.538089 -0.113165,-1.084635 -0.110865,-1.628829 0.0034,-0.797832 0.07101,-1.596552 0.182713,-2.386533 0.07334,-0.518619 0.234502,-1.02169 0.319148,-1.538583 0.111327,-0.67981 0.184804,-1.365713 0.247627,-2.051709 0.05694,-0.621792 0.104822,-1.2452456 0.117064,-1.8695188 0.01302,-0.6621417 0.188503,-1.3670168 -0.0463,-1.9862667 C 9.5331916,6.665433 9.2243706,6.0272112 8.7064896,5.9563476 8.3075556,5.9017596 7.7586606,6.236312 7.7076886,6.6357242 7.6903786,6.7713715 8.2501526,5.7870009 8.6926506,5.6331031 Z"
           id="path13151"
           inkscape:original-d="m 10.165061,6.0779315 c 0.360277,-0.1253019 0.819471,-0.071194 1.135424,0.1425189 0.323953,0.2191242 0.443421,0.6557273 0.568918,1.0261479 0.199451,0.588706 0.233064,1.224318 0.273285,1.8445902 0.0603,0.9299655 0.03635,1.8673345 -0.04914,2.7953245 -0.06212,0.674387 -0.234207,1.334203 -0.336001,2.003751 -0.112427,0.739482 -0.232558,1.478716 -0.303386,2.223334 -0.07055,0.741655 -0.238573,1.496117 -0.120748,2.231743 0.111496,0.69611 0.393911,1.373067 0.768135,1.970526 0.319987,0.510867 0.685151,1.067003 1.229327,1.326329 0.536201,0.255526 1.199268,0.251233 1.778031,0.117674 0.72021,-0.1662 1.46675,-0.611725 1.92467,-1.101167 0.402614,-0.389802 0.994367,-0.58627 1.134006,-1.15817 0.06125,-0.06077 0.09935,0.825772 0.0081,1.084121 -0.148411,0.49885 -0.247938,1.106355 -0.760033,1.394624 -0.197162,0.05301 -0.469166,0.296302 -0.725183,0.399253 -0.679537,0.273259 -1.393535,0.49801 -2.122619,0.567858 -0.576784,0.05526 -1.197788,0.0974 -1.73397,-0.122244 -0.492926,-0.201921 -0.876326,-0.62694 -1.214816,-1.038247 -0.307754,-0.373959 -0.537405,-0.814461 -0.713807,-1.265504 -0.228456,-0.584139 -0.339002,-1.211058 -0.432737,-1.831239 -0.079,-0.522699 -0.109928,-1.053614 -0.107694,-1.582244 0.0033,-0.775014 0.06898,-1.550891 0.177487,-2.318278 0.07124,-0.503787 0.227795,-0.99247 0.310021,-1.49458 0.108143,-0.660368 0.179518,-1.326654 0.240544,-1.99303 0.05531,-0.604009 0.101825,-1.209632 0.113716,-1.8160514 C 11.219203,8.8417671 11.389663,8.1570514 11.161581,7.555512 10.981563,7.0807368 10.681574,6.4607681 10.178504,6.3919312 9.7909794,6.3389048 9.2577834,6.6638887 9.2082696,7.0518777 9.1914538,7.1836455 9.7352188,6.2274278 10.165061,6.0779315 Z"
           sodipodi:nodetypes="aaaaaaaaaaaccccaaaaaaaaaaaaasa" />
        <path
           style="font-size:28px;line-height:1.25;font-family:'Diwani Letter';-inkscape-font-specification:'Diwani Letter';letter-spacing:2.03368px;white-space:pre;shape-inside:url(#rect5204);fill:#dee3db;fill-opacity:1;stroke:#000000;stroke-width:0;stroke-linecap:butt;stroke-linejoin:miter;stroke-miterlimit:4;stroke-dasharray:none;stroke-opacity:1"
           d="m 25.86949,3.8358147 c 0.370885,-0.128991 0.843598,-0.07329 1.168854,0.146715 0.33349,0.2255756 0.456476,0.6750332 0.585668,1.0563597 0.205323,0.6060387 0.239926,1.2603644 0.281331,1.8988986 0.06208,0.9573456 0.03742,1.9223126 -0.05059,2.8776242 -0.06395,0.6942418 -0.241103,1.3734838 -0.345894,2.0627448 -0.115737,0.761254 -0.239405,1.522252 -0.312318,2.288794 -0.07263,0.76349 -0.245597,1.540165 -0.124303,2.297449 0.114779,0.716605 0.405509,1.413493 0.79075,2.028543 -1.021321,4.796582 -0.250985,1.747357 -0.496692,1.513311 -0.316815,-0.384969 -0.553227,-0.83844 -0.734823,-1.302763 -0.235182,-0.601337 -0.348983,-1.246714 -0.445477,-1.885154 -0.08133,-0.538088 -0.113165,-1.084634 -0.110865,-1.628828 0.0034,-0.797832 0.07101,-1.596553 0.182712,-2.386533 0.07334,-0.51862 0.234502,-1.02169 0.319149,-1.538583 0.111327,-0.679811 0.184803,-1.3657138 0.247626,-2.0517086 0.05694,-0.6217922 0.104823,-1.2452459 0.117064,-1.8695195 0.01298,-0.6621417 0.188462,-1.3670168 -0.04633,-1.9862668 -0.185318,-0.4887535 -0.494139,-1.1269753 -1.012021,-1.1978389 -0.398934,-0.054588 -0.947829,0.2799645 -0.9988,0.6793767 -0.01731,0.1356473 0.542464,-0.8487234 0.984961,-1.0026212 z"
           id="path13151-0"
           sodipodi:nodetypes="aaaaaaaaccaaaaaaaaasa" />
        <g
           aria-label="ن"
           transform="matrix(2.0320008,0.11891011,-0.11891011,2.0320008,-96.125076,-34.691519)"
           id="text16762"
           style="font-size:16px;font-family:Aldhabi;-inkscape-font-specification:Aldhabi;shape-inside:url(#rect16764);fill:#dee3db;fill-opacity:1">
          <path
             d="m 51.955996,17.204467 c 0.01042,0.111979 0.03256,0.238282 0.06641,0.378907 0.03385,0.140625 -0.103132,0.669881 -0.06146,0.828735 0.04427,0.158855 0.08985,0.322917 0.136719,0.492188 0.04687,0.171875 0.08984,0.34375 0.128906,0.515625 0.03906,0.171875 0.07031,0.342448 0.09375,0.511719 0.02604,0.166667 0.03906,0.324219 0.03906,0.472656 0,0.247396 -0.01302,0.501302 -0.03906,0.761719 -0.02344,0.257812 -0.05729,0.509114 -0.101562,0.753906 -0.04948,0.390625 -0.130209,0.75 -0.242188,1.078125 -0.111979,0.328125 -0.248697,0.625 -0.410156,0.890625 -0.158854,0.265625 -0.338541,0.498698 -0.539062,0.699219 -0.200521,0.200521 -0.412761,0.368489 -0.636719,0.503906 -0.223959,0.135417 -0.45573,0.236979 -0.695313,0.304687 -0.239583,0.06771 -0.479167,0.101563 -0.71875,0.101563 -0.309895,0 -0.587239,-0.0625 -0.832031,-0.1875 -0.242187,-0.122396 -0.447916,-0.290365 -0.617187,-0.503906 -0.166667,-0.213542 -0.295573,-0.464844 -0.386719,-0.753907 -0.08854,-0.286458 -0.132813,-0.59375 -0.132813,-0.921875 0,-0.223958 0.01562,-0.451822 0.04687,-0.683593 0.03125,-0.229167 0.08203,-0.460938 0.152344,-0.695313 0.07031,-0.234375 0.161459,-0.470052 0.273438,-0.707031 0.111979,-0.236979 0.248697,-0.473959 0.410156,-0.710938 0.117187,-0.169271 0.229166,-0.320312 0.335937,-0.453125 0.109375,-0.135417 0.21875,-0.244792 0.328125,-0.328125 0.01563,0 0.02995,0.0026 0.04297,0.0078 0.01302,0.0052 0.01953,0.01562 0.01953,0.03125 0,0.02083 -0.0039,0.04557 -0.01172,0.07422 -0.0078,0.02865 -0.01953,0.05078 -0.03516,0.06641 -0.04948,0.07813 -0.110678,0.171875 -0.183593,0.28125 -0.07552,0.111979 -0.153646,0.236979 -0.234375,0.375 -0.08073,0.135417 -0.162761,0.283854 -0.246094,0.445312 -0.08073,0.158855 -0.153646,0.328126 -0.21875,0.507813 -0.06511,0.179687 -0.118492,0.367187 -0.160156,0.5625 -0.03906,0.195313 -0.05859,0.395833 -0.05859,0.601562 0,0.270833 0.04037,0.514323 0.121094,0.730469 0.08073,0.216146 0.191406,0.39974 0.332031,0.550781 0.140625,0.151042 0.303385,0.266928 0.488281,0.347657 0.1875,0.08073 0.386719,0.121093 0.597656,0.121093 0.289063,0 0.5625,-0.04948 0.820313,-0.148437 0.257813,-0.09635 0.496094,-0.223958 0.714844,-0.382813 0.21875,-0.158854 0.414062,-0.341146 0.585937,-0.546875 0.174479,-0.203125 0.322917,-0.411458 0.445313,-0.625 0.122395,-0.213541 0.216145,-0.421875 0.28125,-0.625 0.06511,-0.205729 0.09766,-0.390624 0.09766,-0.554687 0,-0.104167 -0.01562,-0.229167 -0.04687,-0.375 -0.03125,-0.145833 -0.07031,-0.299479 -0.117188,-0.460938 -0.04427,-0.164062 -0.09375,-0.330729 -0.148437,-0.5 -0.05469,-0.169271 -0.105468,-0.330729 -0.152344,-0.484375 -0.04427,-0.153645 -0.08203,-0.292968 -0.113281,-0.417968 -0.03125,-0.125 -0.04687,-0.225261 -0.04687,-0.300782 0,-0.03646 0.0065,-0.08854 0.01953,-0.15625 0.01563,-0.06771 0.03906,-0.152343 0.07031,-0.253906 0.03125,-0.101563 0.07291,-0.221354 0.125,-0.359375 0.05469,-0.140625 0.295839,-0.682902 0.373964,-0.867798 z"
             id="path19087"
             sodipodi:nodetypes="csccscsccscsssscccscsscccsssccccscssscscscscsscscsscsccc"
             style="fill:#dee3db;fill-opacity:1" />
        </g>
        <path
           style="color:#000000;-inkscape-font-specification:'Diwani Letter';stroke-width:1.02944;-inkscape-stroke:none"
           d="m 2.5412846,8.5293367 c -0.307648,0.09099 -0.552852,0.3500159 -0.638004,0.6581235 -0.108536,0.37343 -0.06334,0.773016 0.03244,1.1441528 -0.004,0.08067 0.05103,0.05239 0.09942,0.03514 0.139163,-0.04396 -0.153446,0.07855 -0.01428,0.03459 -0.0761,-0.289918 -0.052364,-0.6601629 0.08315,-0.9463768 0.050133,-0.1058842 0.1427649,-0.2016448 0.2513278,-0.2456778 0.1460746,-0.059248 0.3523655,-0.09917 0.4728955,0.0016 0.2008,0.165547 0.370191,0.4689868 0.428063,0.7133918 -1.62e-4,0.07032 0.124496,0.2436678 0.193224,0.2181818 L 3.9905276,9.7724952 c -0.05496,-0.356443 -0.181149,-0.714662 -0.423379,-0.9878416 -0.184492,-0.210486 -0.466745,-0.3256469 -0.745554,-0.3060319 -0.0951,0.0049 -0.18938,0.02263 -0.280314,0.05072 z"
           id="path21055"
           sodipodi:nodetypes="cccccaacccccccc" />
        <g
           aria-label="کا"
           transform="matrix(1.7992198,0,0,1.7992198,-237.3837,-1.7753105)"
           id="text24738"
           style="font-size:16px;font-family:Aldhabi;-inkscape-font-specification:Aldhabi;shape-inside:url(#rect24740)">
          <path
             d="m 146.6411,9.1835938 c 0.35541,0.3758025 0.34234,0.9241012 0.51265,1.3857422 0.0252,0.185561 0.13095,0.37401 0.17378,0.08399 0.15056,-0.317112 0.0484,-0.7764473 0.40894,-0.9516608 0.50215,-0.3785333 1.77396,-0.6617398 2.34299,-0.2734099 0.48652,0.3339862 0.2742,1.0168907 0.16551,1.5455047 -0.0566,0.686708 -0.47272,1.458865 -1.06166,1.896485 -0.44076,0.355862 -1.12158,0.307552 -1.51471,-0.0979 -0.63288,-0.613795 -0.84734,-1.507223 -1.07117,-2.329346 -0.11974,-0.409738 -0.12981,-0.8499805 -0.003,-1.2593997 l 0.0469,5e-7 z m 0.67188,1.7968752 c 0.18228,0.507861 0.57667,1.03257 1.16138,1.058834 0.55142,0.02885 1.26418,-0.403003 1.38923,-0.935791 0.0832,-0.492843 -0.571,-0.869871 -1.02844,-0.864382 -0.57259,0.0064 -1.15572,0.305795 -1.52217,0.741339 z m -0.0156,-1.5468752 c 0.089,-0.3227877 0.0789,-0.675642 0.19045,-0.9853515 0.72529,-0.6397551 1.43482,-1.3036275 2.07095,-2.0348967 0.70987,-0.8056175 2.33089,-2.7535417 2.85674,-3.6898953 0.0472,0.2950585 -0.0578,0.6741367 -0.13804,0.9887084 -0.23099,0.6544722 -1.66913,2.2746808 -2.05652,2.842346 -0.77432,1.035581 -1.63788,2.0344937 -2.70723,2.7753296 -0.0635,0.011167 -0.15425,0.1494853 -0.21635,0.1037595 z"
             id="path25710"
             sodipodi:nodetypes="ccccccccccccccccccccccccc" />
        </g>
      </g>
    </g>
  </g>
</svg>
